<svg height="400px" width="350px" xmlns="http://www.w3.org/2000/svg" xmlns:xlink="http://www.w3.org/1999/xlink" viewBox="0 0 292 210"><defs><style>.cls-1,.cls-2,.cls-4{stroke-miterlimit:10;}.cls-1{fill:url(#linear-gradient);stroke:url(#radial-gradient);}.cls-2,.cls-4{fill:none;}.cls-2{stroke:url(#New_Gradient_Swatch_3);}.cls-3{fill:url(#New_Gradient_Swatch_1);}.cls-4{stroke:url(#New_Gradient_Swatch_3-2);}.cls-5{fill:url(#New_Gradient_Swatch_1-2);}</style><linearGradient id="linear-gradient" x1="0.5" y1="105" x2="291.5" y2="105" gradientUnits="userSpaceOnUse"><stop offset="0" stop-color="#344675"/><stop offset="0.22" stop-color="#2f3e64"/><stop offset="0.5" stop-color="#263148"/><stop offset="1" stop-color="#344675"/></linearGradient><radialGradient id="radial-gradient" cx="146" cy="105" r="127.16" gradientUnits="userSpaceOnUse"><stop offset="0" stop-color="#ba54f5"/><stop offset="0" stop-color="#a963f0"/><stop offset="0" stop-color="#7c89e4"/><stop offset="0" stop-color="#35c5d1"/><stop offset="0" stop-color="#00f2c3"/><stop offset="0.14" stop-color="#00badf"/><stop offset="0.22" stop-color="#0098f0"/><stop offset="0.45" stop-color="#00b7e1"/><stop offset="0.81" stop-color="#00e2cb"/><stop offset="1" stop-color="#00f2c3"/><stop offset="1" stop-color="#e14eca"/></radialGradient><linearGradient id="New_Gradient_Swatch_3" x1="81.73" y1="63.29" x2="217.59" y2="63.29" xlink:href="#radial-gradient"/><linearGradient id="New_Gradient_Swatch_1" x1="197.31" y1="92.02" x2="205.16" y2="92.02" gradientTransform="translate(1.4 16.27) rotate(0.26)" gradientUnits="userSpaceOnUse"><stop offset="0" stop-color="#ba54f5"/><stop offset="0.46" stop-color="#ca52e4"/><stop offset="1" stop-color="#e14eca"/></linearGradient><linearGradient id="New_Gradient_Swatch_3-2" x1="107.56" y1="156.53" x2="203.86" y2="160.35" xlink:href="#radial-gradient"/><linearGradient id="New_Gradient_Swatch_1-2" x1="220.88" y1="-6806.43" x2="227.81" y2="-6806.43" gradientTransform="matrix(1.3, 0.01, 0, 0, -142.67, 103.13)" xlink:href="#New_Gradient_Swatch_1"/></defs><title>GA-Matcher</title><g id="Layer_2" data-name="Layer 2"><g id="Layer_1-2" data-name="Layer 1"><rect class="cls-1" x="0.5" y="0.5" width="291" height="209"/><g id="c9_hat" data-name="c9 hat"><path class="cls-2" d="M204.17,87l.06-15.07,12.42-7.84L149.84,22.51l-67.19,41,26.63,18,0,10.76v.84l.25-.12a2.55,2.55,0,0,0-.49,1.38c0,5.28,18.46,9.67,41.32,9.77s41.38-4.12,41.4-9.4a2.6,2.6,0,0,0-.47-1.38c.08,0,.17.08.24.13v-.78l0-10.64,9.53-8.29L201,87s-2,2.06-2,3.76a3.57,3.57,0,1,0,7.06,0C206.05,89.09,204.17,87,204.17,87Zm-55.39,13.47c-20-.09-36.22-2.8-36.2-6s16.24-5.79,36.26-5.7,36.21,2.79,36.2,6S168.79,100.57,148.78,100.48Zm39.63-27.12c-2.66-3.32-12.26-12-39.49-12.16S112,69.72,109.32,73V69.87s7.87-13.47,39.61-13.33,39.48,13.69,39.48,13.69Z"/><path class="cls-3" d="M199.83,97.63l-1.59,23.09c4.34-7.68,7.87-4.76,7.87-4.76l.09-18.3C201.6,99.69,199.83,97.63,199.83,97.63Z"/></g><path class="cls-4" d="M111.6,148.55l4.72-.65c5.74-.79,18.71,15.3,22.72,13.55l39.52-17.54c2.69-1.18,9.61-1.6,16-1l.81,0c7.37.72,10.36,2.5,7.4,3.87l-65.32,27.9c-4.34,1.9-27.19-22.72-27.31-22.84C108.32,150.15,106.64,149.22,111.6,148.55Z"/><circle class="cls-5" cx="148.87" cy="128" r="4.5"/></g></g></svg>
