<svg xmlns="http://www.w3.org/2000/svg" xmlns:xlink="http://www.w3.org/1999/xlink" viewBox="0 0 291 209"><defs><style>.cls-1{fill:url(#linear-gradient);}.cls-2,.cls-4{fill:none;stroke-miterlimit:10;}.cls-2{stroke:url(#New_Gradient_Swatch_3);}.cls-3{fill:url(#New_Gradient_Swatch_1);}.cls-4{stroke:url(#New_Gradient_Swatch_3-2);}.cls-5{fill:url(#New_Gradient_Swatch_1-2);}</style><linearGradient id="linear-gradient" y1="104.5" x2="291" y2="104.5" gradientUnits="userSpaceOnUse"><stop offset="0" stop-color="#344675"/><stop offset="0.22" stop-color="#2f3e64"/><stop offset="0.5" stop-color="#263148"/><stop offset="1" stop-color="#344675"/></linearGradient><linearGradient id="New_Gradient_Swatch_3" x1="81.23" y1="68.79" x2="217.09" y2="68.79" gradientUnits="userSpaceOnUse"><stop offset="0" stop-color="#ba54f5"/><stop offset="0" stop-color="#a963f0"/><stop offset="0" stop-color="#7c89e4"/><stop offset="0" stop-color="#35c5d1"/><stop offset="0" stop-color="#00f2c3"/><stop offset="0.14" stop-color="#00badf"/><stop offset="0.22" stop-color="#0098f0"/><stop offset="0.45" stop-color="#00b7e1"/><stop offset="0.81" stop-color="#00e2cb"/><stop offset="1" stop-color="#00f2c3"/><stop offset="1" stop-color="#e14eca"/></linearGradient><linearGradient id="New_Gradient_Swatch_1" x1="194.73" y1="97.06" x2="202.58" y2="97.06" gradientTransform="translate(3.51 16.74) rotate(0.26)" gradientUnits="userSpaceOnUse"><stop offset="0" stop-color="#ba54f5"/><stop offset="0.46" stop-color="#ca52e4"/><stop offset="1" stop-color="#e14eca"/></linearGradient><linearGradient id="New_Gradient_Swatch_3-2" x1="107.06" y1="162.03" x2="203.36" y2="165.85" xlink:href="#New_Gradient_Swatch_3"/><linearGradient id="New_Gradient_Swatch_1-2" x1="195.01" y1="127014.84" x2="201.94" y2="127014.84" gradientTransform="matrix(1.3, 0.01, 0, 0, -111.63, 571.85)" xlink:href="#New_Gradient_Swatch_1"/></defs><title>GaMatcherFinal4</title><g id="Layer_2" data-name="Layer 2"><g id="Layer_1-2" data-name="Layer 1"><rect class="cls-1" width="291" height="209"/><g id="c9_hat" data-name="c9 hat"><path class="cls-2" d="M203.67,92.51l.06-15.07,12.42-7.84L149.34,28,82.15,69l26.63,18,0,10.76v.84l.25-.12a2.55,2.55,0,0,0-.49,1.38c0,5.28,18.46,9.67,41.32,9.77s41.38-4.12,41.4-9.4a2.6,2.6,0,0,0-.47-1.38c.08,0,.17.08.24.13v-.78l0-10.64,9.53-8.29L200.5,92.5s-2,2.06-2,3.76a3.57,3.57,0,1,0,7.06,0C205.55,94.59,203.67,92.51,203.67,92.51ZM148.28,106c-20-.09-36.22-2.8-36.2-6s16.24-5.79,36.26-5.7,36.21,2.79,36.2,6S168.29,106.07,148.28,106Zm39.63-27.12c-2.66-3.32-12.26-12-39.49-12.16s-36.91,8.52-39.6,11.81V75.37S116.7,61.9,148.44,62s39.48,13.69,39.48,13.69Z"/><path class="cls-3" d="M199.33,103.13l-1.59,23.09c4.34-7.68,7.87-4.76,7.87-4.76l.09-18.3C201.1,105.19,199.33,103.13,199.33,103.13Z"/></g><path class="cls-4" d="M111.1,154.05l4.72-.65c5.74-.79,18.71,15.3,22.72,13.55l39.52-17.54c2.69-1.18,9.61-1.6,16-1l.81,0c7.37.72,10.36,2.5,7.4,3.87L137,180.23c-4.34,1.9-27.19-22.72-27.31-22.84C107.82,155.65,106.14,154.72,111.1,154.05Z"/><circle class="cls-5" cx="148.37" cy="133.5" r="4.5"/></g></g></svg>
