<svg xmlns="http://www.w3.org/2000/svg" viewBox="0 0 83.4 10.59"><title>HudonTitleFinalFinal</title><g id="Layer_2" data-name="Layer 2"><g id="Layer_1-2" data-name="Layer 1"><path d="M8.77.91V10h-1V5.82H1.55V10H.5V.91H1.55V5H7.73V.91Z" style="stroke:#000;stroke-miterlimit:10"/><path d="M14.26,6.13V.91h1V6.09c0,2.16,1.1,3.14,3,3.14s3-1,3-3.14V.91h1V6.13c0,2.61-1.52,4-4.05,4S14.26,8.74,14.26,6.13Z" style="stroke:#000;stroke-miterlimit:10"/><path d="M27.89.91h4c3.17,0,5.3,1.88,5.3,4.55S35.08,10,31.91,10h-4Zm4,8.27c2.62,0,4.32-1.53,4.32-3.72s-1.7-3.71-4.32-3.71H28.93V9.18Z" style="stroke:#000;stroke-miterlimit:10"/><path d="M41,8.91l.41-.74a5.06,5.06,0,0,0,3.26,1.1c1.85,0,2.66-.71,2.66-1.61,0-2.49-6.09-1-6.09-4.33C41.21,2,42.34.84,44.85.84a6,6,0,0,1,3.07.8l-.36.77a5.34,5.34,0,0,0-2.71-.75c-1.81,0-2.61.74-2.61,1.65,0,2.49,6.09,1,6.09,4.3,0,1.34-1.16,2.48-3.69,2.48A5.65,5.65,0,0,1,41,8.91Z" style="stroke:#000;stroke-miterlimit:10"/><path d="M52.08,5.46c0-2.65,2.2-4.62,5.2-4.62s5.18,2,5.18,4.62-2.21,4.63-5.18,4.63S52.08,8.12,52.08,5.46Zm9.34,0a4.17,4.17,0,0,0-8.31,0,3.87,3.87,0,0,0,4.17,3.77A3.86,3.86,0,0,0,61.42,5.46Z" style="stroke:#000;stroke-miterlimit:10"/><path d="M75.43.91V10h-.86L68.21,2.63V10h-1V.91H68L74.4,8.3V.91Z" style="stroke:#000;stroke-miterlimit:10"/><circle cx="81.4" cy="2" r="2"/></g></g></svg>
