<svg xmlns="http://www.w3.org/2000/svg" viewBox="0 0 401.89 350.98"><defs><style>.cls-1{fill:#8cbee8;}.cls-2{fill:#ff1500;}.cls-3{fill:none;stroke-linecap:round;stroke-linejoin:round;stroke-width:4.54px;}.cls-3,.cls-6{stroke:#fff;}.cls-4{fill:#f8feff;}.cls-5{fill:#fff;}.cls-6{fill:#e6e6e6;stroke-miterlimit:10;stroke-width:2.27px;}</style></defs><title>NodeSent2</title><g id="Layer_2" data-name="Layer 2"><g id="svgLayer"><rect class="cls-1" x="1.89" width="400" height="350"/><path class="cls-2" d="M127.91,325.31c-1.83-3.72-1.64-6.68.28-8.24s4.08-.52,5.9,3.2,1.67,6.75-.24,8.31S129.72,329,127.91,325.31Zm5.14-4.19c-1.56-3.18-3.09-3.86-4.29-2.89s-1.38,3,.19,6.23,3.12,3.94,4.32,3S134.62,324.3,133.05,321.12Zm-3,2.23a1.51,1.51,0,0,1,.28-1.83c.44-.36,1.05-.25,1.4.47a1.52,1.52,0,0,1-.27,1.85C131.07,324.2,130.46,324.08,130.1,323.35Z"/><path class="cls-3" d="M110.05,336.49c7.39,1.95,14-.41,16.62-1.34a36.55,36.55,0,0,0,6.47-3.16c8.5-5.36,17-16.76,23.28-31.61a132.06,132.06,0,0,0,8.75-30.16c.36-2.11.68-4.27.94-6.43a139.73,139.73,0,0,0,1-16.73"/><path class="cls-4" d="M283.58,113H288l10.07,25.45,3,8.4h.1c-.15-4-.53-8.58-.53-12.85V113h3.84v40.52h-4.41L290,128.08l-3-8.4h-.09c.14,4.14.52,8.47.52,12.67v21.18h-3.83Z"/><path class="cls-4" d="M311.82,133.71c0-13.22,4.17-20.33,11-20.33s11,7.11,11,20.33-4.17,20.56-11,20.56S311.82,146.8,311.82,133.71Zm18.27,0c0-11.31-3-16.19-7.28-16.19s-7.29,4.88-7.29,16.19,3,16.43,7.29,16.43S330.09,145,330.09,133.71Zm-10.26-.44c0-2.53,1.39-4.07,3-4.07s3,1.54,3,4.07-1.39,4.14-3,4.14S319.83,135.87,319.83,133.27Z"/><path class="cls-4" d="M341.36,113h7.77c9.45,0,14.58,7.23,14.58,20.08s-5.13,20.44-14.39,20.44h-8Zm7.48,36.26c7.15,0,10.7-5.93,10.7-16.18s-3.55-15.82-10.7-15.82h-3.45v32Z"/><path class="cls-4" d="M371.43,113H390.9v4.39H375.46v12.66h13v4.39h-13v14.7h15.92v4.38H371.43Z"/><polygon class="cls-5" points="288 63.05 162.12 207.17 100.17 209.74 272.93 74.81 278.69 70.33 288 63.05"/><polygon class="cls-5" points="288 63.05 236.05 302.39 200.08 227.76 288 63.05"/><polygon class="cls-6" points="164.21 271.38 164.11 271.51 162.12 207.17 288 63.05 200.08 227.76 165.17 270.22 164.21 271.38"/><path class="cls-3" d="M91.9,320.48c-1.4-2-2.16-3.32-2.16-3.32s-4-13.15-14.4-20.64c-6.12-4.42-14.47-6.87-25.48-3.42-29.15,9.14-47,54.17-47.57,55.59l0,0"/><path class="cls-3" d="M110,336.46c-8.4-3.63-14.81-11.37-18-15.88"/><path class="cls-4" d="M282.86,197.18l2.4-3.58c2.39,3,5.66,5,9.2,5,4.32,0,6.81-2.66,6.81-6.36,0-4.33-2.44-5.56-5.61-7.29l-4.55-2.6c-3.12-1.6-6.76-4.44-6.76-10.43,0-6.18,4.31-10.75,10.31-10.75a12.35,12.35,0,0,1,9.68,5l-2.11,3.34a9.82,9.82,0,0,0-7.72-3.77c-3.64,0-6.09,2.22-6.09,5.87,0,3.89,2.93,5.31,5.61,6.67l4.42,2.53c3.88,2,6.95,4.82,6.95,10.81,0,6.42-4.22,11.55-11.13,11.55A14.44,14.44,0,0,1,282.86,197.18Z"/><path class="cls-4" d="M313.88,161.91h19.48v4.39H317.91V179h13v4.38h-13V198h15.93v4.39h-20Z"/><path class="cls-4" d="M341.12,161.91h4.41l10.08,25.45,3,8.4h.09c-.14-4-.52-8.59-.52-12.85v-21H362v40.52h-4.41L347.55,177l-3-8.4h-.1c.15,4.14.53,8.46.53,12.66v21.19h-3.84Z"/><path class="cls-4" d="M378.33,166.3h-10.4v-4.39h24.84v4.39H382.36v36.13h-4Z"/><path class="cls-2" d="M141.78,311.88c-2.87-2.41-3.65-5.2-2.41-7.65s3.54-2.66,6.4-.25,3.7,5.24,2.46,7.69S144.61,314.26,141.78,311.88Zm3.32-6.58c-2.45-2.05-4.06-1.86-4.83-.32s-.27,3.51,2.18,5.57,4.11,1.9,4.89.37S147.55,307.36,145.1,305.3Zm-2,3.62a1.51,1.51,0,0,1-.34-1.82.87.87,0,0,1,1.42-.32,1.5,1.5,0,0,1,.36,1.82A.88.88,0,0,1,143.14,308.92Z"/><path class="cls-2" d="M150.49,305.15l1.52-3.24-6.41-5-1.18,2.52-.74-.57a11.92,11.92,0,0,0,.71-3.39l.51-1.1,7.79,6.06,1.37-2.93.95.74-3.58,7.63Z"/><path class="cls-2" d="M138.33,322.8l2.18-2.56-5-7.09-1.69,2-.58-.82a10.38,10.38,0,0,0,1.44-3l.74-.86,6.08,8.61,2-2.3.74,1-5.13,6Z"/><path class="cls-2" d="M311.7,133.71c0-13.22,4.17-20.33,11-20.33s11,7.11,11,20.33-4.17,20.56-11,20.56S311.7,146.8,311.7,133.71Zm18.27,0c0-11.31-3-16.19-7.29-16.19s-7.29,4.88-7.29,16.19,3,16.43,7.29,16.43S330,145,330,133.71Zm-10.26-.44c0-2.53,1.39-4.07,3-4.07s3,1.54,3,4.07-1.39,4.14-3,4.14S319.71,135.87,319.71,133.27Z"/></g></g></svg>
