<svg xmlns="http://www.w3.org/2000/svg" viewBox="0 0 292.22 209.73"><defs><style>.cls-1{fill:#8cbee8;}.cls-2{fill:#ff1500;}.cls-3{fill:none;stroke-linecap:round;stroke-linejoin:round;stroke-width:2.99px;}.cls-3,.cls-6{stroke:#fff;}.cls-4{fill:#f8feff;}.cls-5{fill:#fff;}.cls-6{fill:#e6e6e6;stroke-miterlimit:10;stroke-width:1.49px;}</style></defs><title>NodeSentFinal3</title><g id="Layer_2" data-name="Layer 2"><g id="Layer_1-2" data-name="Layer 1"><rect class="cls-1" x="1.22" width="291" height="209"/><path class="cls-2" d="M92.86,194.26c-1.33-2.22-1.19-4,.2-4.92s3-.31,4.3,1.91,1.21,4-.18,5S94.17,196.46,92.86,194.26Zm3.74-2.5c-1.14-1.9-2.25-2.31-3.12-1.73s-1,1.82.13,3.72,2.28,2.35,3.15,1.77S97.74,193.66,96.6,191.76Zm-2.15,1.33a.79.79,0,0,1,.2-1.09.7.7,0,0,1,1,.28.8.8,0,0,1-.19,1.1A.71.71,0,0,1,94.45,193.09Z"/><path class="cls-3" d="M79.9,200.93a24.39,24.39,0,0,0,12.1-.8,28.49,28.49,0,0,0,4.71-1.89c6.17-3.19,12.32-10,16.93-18.87a68.79,68.79,0,0,0,6.37-18c.26-1.26.49-2.55.68-3.84a69.18,69.18,0,0,0,.73-10"/><path class="cls-4" d="M206.15,67.49h3.21l7.32,15.19,2.2,5H219c-.11-2.4-.39-5.13-.39-7.67V67.49h2.79V91.68h-3.2l-7.33-15.19-2.2-5h-.07c.11,2.47.39,5,.39,7.56V91.68h-2.79Z"/><path class="cls-4" d="M226.69,79.84c0-7.89,3-12.13,8-12.13s8,4.24,8,12.13-3,12.28-8,12.28S226.69,87.66,226.69,79.84Zm13.29,0c0-6.75-2.19-9.66-5.3-9.66s-5.3,2.91-5.3,9.66,2.2,9.81,5.3,9.81S240,86.59,240,79.84Zm-7.46-.26a2.18,2.18,0,1,1,4.33,0,2.19,2.19,0,1,1-4.33,0Z"/><path class="cls-4" d="M248.19,67.49h5.65c6.87,0,10.6,4.31,10.6,12S260.71,91.68,254,91.68h-5.79Zm5.44,21.65c5.19,0,7.78-3.54,7.78-9.67S258.82,70,253.63,70h-2.51V89.14Z"/><path class="cls-4" d="M270.06,67.49h14.16v2.62H273v7.56h9.49v2.61H273v8.78h11.58v2.62H270.06Z"/><polygon class="cls-5" points="209.36 37.65 117.78 123.71 72.72 125.25 198.4 44.67 202.59 42 209.36 37.65"/><polygon class="cls-5" points="209.36 37.65 171.57 180.57 145.4 136 209.36 37.65"/><polygon class="cls-6" points="119.31 162.05 119.24 162.13 117.78 123.71 209.36 37.65 145.4 136 120.01 161.36 119.31 162.05"/><path class="cls-3" d="M66.7,191.37c-1-1.18-1.57-2-1.57-2a26.89,26.89,0,0,0-10.48-12.32c-4.44-2.65-10.52-4.11-18.53-2-21.21,5.46-34.22,32.35-34.61,33.2h0"/><path class="cls-3" d="M79.84,200.92c-6.1-2.17-10.77-6.8-13.08-9.49"/><path class="cls-4" d="M205.62,117.74l1.75-2.13a9.37,9.37,0,0,0,6.69,3c3.14,0,5-1.58,5-3.8,0-2.58-1.78-3.31-4.08-4.35l-3.32-1.55c-2.26-1-4.92-2.65-4.92-6.23s3.14-6.42,7.5-6.42a9.71,9.71,0,0,1,7.05,3l-1.53,2A7.82,7.82,0,0,0,214.1,99c-2.65,0-4.43,1.33-4.43,3.51s2.13,3.17,4.08,4L217,108c2.83,1.18,5.06,2.88,5.06,6.46,0,3.83-3.07,6.89-8.09,6.89A11.33,11.33,0,0,1,205.62,117.74Z"/><path class="cls-4" d="M228.19,96.69h14.17V99.3H231.12v7.56h9.49v2.62h-9.49v8.78h11.59v2.62H228.19Z"/><path class="cls-4" d="M248,96.69h3.21l7.33,15.19,2.19,5h.07c-.1-2.4-.38-5.13-.38-7.67V96.69h2.79v24.19H260l-7.32-15.19-2.2-5h-.07c.1,2.47.38,5,.38,7.56v12.65H248Z"/><path class="cls-4" d="M275.08,99.3h-7.57V96.69h18.07V99.3H278v21.58h-2.93Z"/><path class="cls-2" d="M103,186.21c-2.08-1.44-2.65-3.1-1.75-4.57s2.58-1.58,4.66-.15,2.69,3.13,1.79,4.6S105.07,187.63,103,186.21Zm2.42-3.92c-1.78-1.23-3-1.11-3.51-.2s-.2,2.1,1.58,3.33,3,1.13,3.56.22S107.2,183.51,105.42,182.29ZM104,184.44a.79.79,0,0,1-.24-1.08.69.69,0,0,1,1-.19.78.78,0,0,1,.26,1.08A.7.7,0,0,1,104,184.44Z"/><path class="cls-2" d="M109.33,182.24l1.1-1.94-4.66-3-.86,1.5-.53-.34a5.71,5.71,0,0,0,.51-2l.38-.66,5.66,3.62,1-1.75.68.44-2.6,4.56Z"/><path class="cls-2" d="M100.5,192.73l1.59-1.53L98.44,187l-1.23,1.18-.42-.48a5.8,5.8,0,0,0,1-1.79l.53-.52,4.43,5.15,1.44-1.38.53.63L101,193.35Z"/><path class="cls-2" d="M226.6,79.84c0-7.89,3-12.13,8-12.13s8,4.24,8,12.13-3,12.28-8,12.28S226.6,87.66,226.6,79.84Zm13.29,0c0-6.75-2.19-9.66-5.3-9.66s-5.3,2.91-5.3,9.66,2.2,9.81,5.3,9.81S239.89,86.59,239.89,79.84Zm-7.46-.26a2.17,2.17,0,1,1,4.32,0,2.18,2.18,0,1,1-4.32,0Z"/></g></g></svg>
